<svg width="48" height="48" viewBox="0 0 48 48" fill="none" xmlns="http://www.w3.org/2000/svg">
<g clip-path="url(#clip0_27169_89990)">
<circle cx="24" cy="24" r="24" fill="#F9F9F9"/>
<path d="M10.666 17.9959C10.666 14.8043 13.4511 12.3277 16.6208 12.7006L39.9476 15.4449C42.6327 15.7608 44.6564 18.0365 44.6564 20.7402V49.9892H10.666V17.9959Z" fill="#8C1488"/>
<g filter="url(#filter0_f_27169_89990)">
<path d="M8.09997 20.9959C8.09997 17.8641 10.8328 15.4339 13.9431 15.7999L37.2699 18.5442C39.9047 18.8542 41.8904 21.0872 41.8904 23.7402V52.8893H8.09997V20.9959Z" stroke="url(#paint0_linear_27169_89990)" stroke-width="0.199943"/>
</g>
<path d="M44.6564 50.001L41.324 53.9999L29.6607 50.001L11.3325 17.0104C17.2197 17.1214 31.5268 15.6109 37.6584 15.3443C43.79 15.0777 44.5453 19.343 44.6564 20.676V50.001Z" fill="url(#paint1_linear_27169_89990)"/>
<path d="M8 20.9959C8 17.8043 10.7851 15.3277 13.9548 15.7006L37.2815 18.4449C39.9667 18.7608 41.9904 21.0365 41.9904 23.7402V52.9892H8V20.9959Z" fill="url(#paint2_linear_27169_89990)"/>
<g filter="url(#filter1_i_27169_89990)">
<path d="M14 24.2461C14 23.5822 14.5784 23.0666 15.2379 23.1426L28.8496 24.7102C29.4102 24.7748 29.8333 25.2494 29.8333 25.8137V26.7539C29.8333 27.4178 29.2549 27.9334 28.5954 27.8574L14.9837 26.2898C14.4231 26.2252 14 25.7506 14 25.1863V24.2461Z" fill="url(#paint3_radial_27169_89990)"/>
</g>
<g filter="url(#filter2_i_27169_89990)">
<path d="M14 31.2461C14 30.5822 14.5784 30.0666 15.2379 30.1426L28.8496 31.7102C29.4102 31.7748 29.8333 32.2494 29.8333 32.8137V33.7539C29.8333 34.4178 29.2549 34.9334 28.5954 34.8574L14.9837 33.2898C14.4231 33.2252 14 32.7506 14 32.1863V31.2461Z" fill="#F3E4C8"/>
</g>
<g filter="url(#filter3_i_27169_89990)">
<path d="M14 38.2625C14 37.5929 14.5881 37.0755 15.2522 37.1607L22.1973 38.0522C22.7515 38.1233 23.1667 38.5952 23.1667 39.154V39.9042C23.1667 40.5738 22.5786 41.0912 21.9144 41.0059L14.9694 40.1145C14.4151 40.0433 14 39.5715 14 39.0127V38.2625Z" fill="#F3E4C8"/>
</g>
</g>
<defs>
<filter id="filter0_f_27169_89990" x="7.73341" y="15.3967" width="34.5234" height="37.8591" filterUnits="userSpaceOnUse" color-interpolation-filters="sRGB">
<feFlood flood-opacity="0" result="BackgroundImageFix"/>
<feBlend mode="normal" in="SourceGraphic" in2="BackgroundImageFix" result="shape"/>
<feGaussianBlur stdDeviation="0.133296" result="effect1_foregroundBlur_27169_89990"/>
</filter>
<filter id="filter1_i_27169_89990" x="14" y="23.1353" width="15.8335" height="5.00719" filterUnits="userSpaceOnUse" color-interpolation-filters="sRGB">
<feFlood flood-opacity="0" result="BackgroundImageFix"/>
<feBlend mode="normal" in="SourceGraphic" in2="BackgroundImageFix" result="shape"/>
<feColorMatrix in="SourceAlpha" type="matrix" values="0 0 0 0 0 0 0 0 0 0 0 0 0 0 0 0 0 0 127 0" result="hardAlpha"/>
<feOffset dy="0.277699"/>
<feGaussianBlur stdDeviation="0.277699"/>
<feComposite in2="hardAlpha" operator="arithmetic" k2="-1" k3="1"/>
<feColorMatrix type="matrix" values="0 0 0 0 0 0 0 0 0 0 0 0 0 0 0 0 0 0 0.25 0"/>
<feBlend mode="normal" in2="shape" result="effect1_innerShadow_27169_89990"/>
</filter>
<filter id="filter2_i_27169_89990" x="14" y="30.1353" width="15.8335" height="5.00719" filterUnits="userSpaceOnUse" color-interpolation-filters="sRGB">
<feFlood flood-opacity="0" result="BackgroundImageFix"/>
<feBlend mode="normal" in="SourceGraphic" in2="BackgroundImageFix" result="shape"/>
<feColorMatrix in="SourceAlpha" type="matrix" values="0 0 0 0 0 0 0 0 0 0 0 0 0 0 0 0 0 0 127 0" result="hardAlpha"/>
<feOffset dy="0.277699"/>
<feGaussianBlur stdDeviation="0.277699"/>
<feComposite in2="hardAlpha" operator="arithmetic" k2="-1" k3="1"/>
<feColorMatrix type="matrix" values="0 0 0 0 0 0 0 0 0 0 0 0 0 0 0 0 0 0 0.25 0"/>
<feBlend mode="normal" in2="shape" result="effect1_innerShadow_27169_89990"/>
</filter>
<filter id="filter3_i_27169_89990" x="14" y="37.1516" width="9.1665" height="4.14122" filterUnits="userSpaceOnUse" color-interpolation-filters="sRGB">
<feFlood flood-opacity="0" result="BackgroundImageFix"/>
<feBlend mode="normal" in="SourceGraphic" in2="BackgroundImageFix" result="shape"/>
<feColorMatrix in="SourceAlpha" type="matrix" values="0 0 0 0 0 0 0 0 0 0 0 0 0 0 0 0 0 0 127 0" result="hardAlpha"/>
<feOffset dy="0.277699"/>
<feGaussianBlur stdDeviation="0.277699"/>
<feComposite in2="hardAlpha" operator="arithmetic" k2="-1" k3="1"/>
<feColorMatrix type="matrix" values="0 0 0 0 0 0 0 0 0 0 0 0 0 0 0 0 0 0 0.25 0"/>
<feBlend mode="normal" in2="shape" result="effect1_innerShadow_27169_89990"/>
</filter>
<linearGradient id="paint0_linear_27169_89990" x1="10.9992" y1="16.6662" x2="39.3245" y2="52.9892" gradientUnits="userSpaceOnUse">
<stop stop-color="#EFDFEF"/>
<stop offset="0.669425" stop-color="#661066"/>
<stop offset="1" stop-color="#470D47"/>
</linearGradient>
<linearGradient id="paint1_linear_27169_89990" x1="43.9899" y1="16.6773" x2="13.9984" y2="50.0012" gradientUnits="userSpaceOnUse">
<stop stop-color="#8F158B"/>
<stop offset="0.297472" stop-color="#871484"/>
<stop offset="0.569239" stop-color="#8B1588"/>
<stop offset="0.760587" stop-color="#521851"/>
<stop offset="1" stop-color="#E5E5E5"/>
</linearGradient>
<linearGradient id="paint2_linear_27169_89990" x1="13.9983" y1="16.333" x2="38.9912" y2="56.6549" gradientUnits="userSpaceOnUse">
<stop stop-color="#AD17AA"/>
<stop offset="0.286458" stop-color="#8B118A"/>
<stop offset="0.564161" stop-color="#520F52"/>
<stop offset="1" stop-color="#2D092D"/>
</linearGradient>
<radialGradient id="paint3_radial_27169_89990" cx="0" cy="0" r="1" gradientUnits="userSpaceOnUse" gradientTransform="translate(12.763 25.5) rotate(10.5676) scale(16.3582 52.8603)">
<stop stop-color="#F3DC87"/>
<stop offset="1" stop-color="#F6E9DB"/>
</radialGradient>
<clipPath id="clip0_27169_89990">
<rect width="48" height="48" rx="24" fill="white"/>
</clipPath>
</defs>
</svg>
